<svg width="26" height="35" viewBox="0 0 26 35" fill="none" xmlns="http://www.w3.org/2000/svg">
<path d="M4.33348 8.75004V5.4688C4.33348 4.7163 4.47431 4.00974 4.75598 3.34911C5.03764 2.67755 5.42764 2.09568 5.9238 1.60568C6.40913 1.10474 6.98546 0.71099 7.65062 0.426616C8.30495 0.142241 9.00478 5.40273e-05 9.75011 5.40273e-05C10.3589 5.40273e-05 10.9396 0.0963036 11.4943 0.290991C12.0489 0.485678 12.5559 0.759115 13.0174 1.1113C13.9437 0.390337 15.0805 -0.000441228 16.2501 5.40273e-05C17.3176 -0.00475142 18.3625 0.311109 19.2518 0.907466C20.1411 1.50382 20.8346 2.35373 21.2442 3.34911C21.5259 4.00974 21.6667 4.7163 21.6667 5.4688V8.75004H23.8333C24.408 8.75004 24.9591 8.98051 25.3654 9.39074C25.7717 9.80098 26 10.3574 26 10.9375V28.4375C26 29.3497 25.831 30.2028 25.493 31.0013C25.155 31.7866 24.6913 32.4822 24.1042 33.0859C23.7142 33.4709 23.2874 33.8034 22.8172 34.0834L21.5389 33.5234L20.4664 33.04L20.007 32.7841L19.526 32.4231L19.0039 31.9594L18.4232 31.3338C17.7134 30.5403 17.3245 29.5067 17.3334 28.4375V8.75004H19.5V5.4688C19.5 5.0138 19.4155 4.58505 19.2465 4.18692C19.0013 3.59012 18.585 3.08092 18.0511 2.72468C17.5172 2.36843 16.89 2.18139 16.2501 2.18755C15.5849 2.18755 14.9869 2.37568 14.4561 2.75192C14.923 3.57971 15.168 4.51618 15.1667 5.4688V28.4375C15.1576 30.0543 15.7499 31.6156 16.8264 32.8125L17.4959 33.5344L18.1632 34.125L18.8327 34.6281L19.5 35H6.50013C4.78062 34.9996 3.13131 34.3114 1.91333 33.0859C1.31882 32.4871 0.84238 31.7796 0.509337 31.0013C0.167047 30.191 -0.00627606 29.3183 0.000173608 28.4375V10.9375C0.000173608 10.3574 0.228446 9.80098 0.634772 9.39074C1.0411 8.98051 1.59219 8.75004 2.16683 8.75004H4.33348ZM6.50013 8.75004H13.0001V5.4688C13.0001 5.0138 12.9156 4.58505 12.7466 4.18692C12.5013 3.59012 12.085 3.08092 11.5511 2.72468C11.0172 2.36843 10.3901 2.18139 9.75011 2.18755C9.29945 2.18755 8.87478 2.27286 8.48045 2.44349C7.88933 2.6911 7.38499 3.1114 7.03214 3.65044C6.67928 4.18949 6.49402 4.8227 6.50013 5.4688V8.75004Z" fill="#73584D"/>
</svg>
